<?xml version="1.0" encoding="utf-8"?>
<!-- Generator: Adobe Illustrator 19.1.0, SVG Export Plug-In . SVG Version: 6.00 Build 0)  -->
<!DOCTYPE svg PUBLIC "-//W3C//DTD SVG 1.1//EN" "http://www.w3.org/Graphics/SVG/1.1/DTD/svg11.dtd">
<svg version="1.1" id="Layer_1" xmlns="http://www.w3.org/2000/svg" xmlns:xlink="http://www.w3.org/1999/xlink" x="0px" y="0px"
	 width="576px" height="512px" viewBox="-107 51 576 512" style="enable-background:new -107 51 576 512;" xml:space="preserve">
<style type="text/css">
	.st0{fill:#66CDEC;}
</style>
<g id="icomoon-ignore">
</g>
<path class="st0" d="M133,115c-25.3,0-49.8,4-72.7,11.8c-21.5,7.3-40.6,17.7-56.8,30.8C-26.5,181.9-43,213-43,245.2
	c0,18,5,35.5,15,51.9c10.3,17.2,25.9,32.9,45.1,45.5c15.2,10,25.5,26,28.2,44c0.5,3,0.8,6,1.1,9c1.4-1.3,2.7-2.6,4.1-3.9
	c12.1-12,28.3-18.7,45.2-18.7c2.7,0,5.4,0.2,8,0.5c9.7,1.2,19.6,1.8,29.4,1.8c25.3,0,49.8-4,72.7-11.8c21.5-7.3,40.6-17.7,56.8-30.8
	c30-24.3,46.6-55.4,46.6-87.6s-16.5-63.3-46.6-87.6c-16.2-13.1-35.3-23.5-56.8-30.8C182.8,119,158.3,115,133,115L133,115z M133,51
	L133,51c132.5,0,240,87,240,194.2S265.5,439.4,133,439.4c-12.7,0-25.2-0.8-37.4-2.4C44,488.4-15.5,497.6-75,499v-12.6
	c32.1-15.7,58-44.2,58-76.9c0-4.6-0.4-9-1-13.4c-54.3-35.6-89-90-89-150.9C-107,138,0.5,51,133,51L133,51z M391,486.3
	c0,28,18.2,52.4,46,65.9V563c-51.6-1.2-98.9-9.1-143.6-53.1c-10.6,1.3-21.4,2-32.4,2c-47.7,0-91.7-12.9-126.8-34.5
	c72.3-0.3,140.6-23.4,192.4-65.3c26.1-21.1,46.7-45.9,61.2-73.7c15.4-29.4,23.2-60.8,23.2-93.2c0-5.2-0.2-10.4-0.6-15.6
	c36.3,30,58.6,70.8,58.6,115.8c0,52.2-30.1,98.9-77.1,129.4C391.3,478.6,391,482.4,391,486.3z"/>
</svg>
